<?xml version="1.0" encoding="UTF-8" standalone="no"?>
<!DOCTYPE svg PUBLIC "-//W3C//DTD SVG 1.1//EN"
 "http://www.w3.org/Graphics/SVG/1.1/DTD/svg11.dtd">
<!-- Generated by graphviz version 3.0.0 (20220226.1711)
 -->
<!-- Title: Tree Pages: 1 -->
<svg width="743pt" height="581pt"
 viewBox="0.00 0.00 743.00 581.00" xmlns="http://www.w3.org/2000/svg" xmlns:xlink="http://www.w3.org/1999/xlink">
<g id="graph0" class="graph" transform="scale(1 1) rotate(0) translate(4 577)">
<title>Tree</title>
<polygon fill="white" stroke="transparent" points="-4,4 -4,-577 739,-577 739,4 -4,4"/>
<!-- 0 -->
<g id="node1" class="node">
<title>0</title>
<polygon fill="none" stroke="black" points="454.5,-573 329.5,-573 329.5,-505 454.5,-505 454.5,-573"/>
<text text-anchor="middle" x="392" y="-557.8" font-family="Times New Roman,serif" font-size="14.00">X[3] &lt;= 0.8</text>
<text text-anchor="middle" x="392" y="-542.8" font-family="Times New Roman,serif" font-size="14.00">gini = 0.667</text>
<text text-anchor="middle" x="392" y="-527.8" font-family="Times New Roman,serif" font-size="14.00">samples = 150</text>
<text text-anchor="middle" x="392" y="-512.8" font-family="Times New Roman,serif" font-size="14.00">value = [50, 50, 50]</text>
</g>
<!-- 1 -->
<g id="node2" class="node">
<title>1</title>
<polygon fill="none" stroke="black" points="381,-461.5 269,-461.5 269,-408.5 381,-408.5 381,-461.5"/>
<text text-anchor="middle" x="325" y="-446.3" font-family="Times New Roman,serif" font-size="14.00">gini = 0.0</text>
<text text-anchor="middle" x="325" y="-431.3" font-family="Times New Roman,serif" font-size="14.00">samples = 50</text>
<text text-anchor="middle" x="325" y="-416.3" font-family="Times New Roman,serif" font-size="14.00">value = [50, 0, 0]</text>
</g>
<!-- 0&#45;&gt;1 -->
<g id="edge1" class="edge">
<title>0&#45;&gt;1</title>
<path fill="none" stroke="black" d="M370.25,-504.88C362.95,-493.78 354.8,-481.37 347.45,-470.18"/>
<polygon fill="black" stroke="black" points="350.18,-467.96 341.76,-461.52 344.33,-471.8 350.18,-467.96"/>
<text text-anchor="middle" x="336.69" y="-482.3" font-family="Times New Roman,serif" font-size="14.00">True</text>
</g>
<!-- 2 -->
<g id="node3" class="node">
<title>2</title>
<polygon fill="none" stroke="black" points="518.5,-469 399.5,-469 399.5,-401 518.5,-401 518.5,-469"/>
<text text-anchor="middle" x="459" y="-453.8" font-family="Times New Roman,serif" font-size="14.00">X[3] &lt;= 1.75</text>
<text text-anchor="middle" x="459" y="-438.8" font-family="Times New Roman,serif" font-size="14.00">gini = 0.5</text>
<text text-anchor="middle" x="459" y="-423.8" font-family="Times New Roman,serif" font-size="14.00">samples = 100</text>
<text text-anchor="middle" x="459" y="-408.8" font-family="Times New Roman,serif" font-size="14.00">value = [0, 50, 50]</text>
</g>
<!-- 0&#45;&gt;2 -->
<g id="edge2" class="edge">
<title>0&#45;&gt;2</title>
<path fill="none" stroke="black" d="M413.75,-504.88C419.43,-496.24 425.62,-486.82 431.55,-477.79"/>
<polygon fill="black" stroke="black" points="434.56,-479.58 437.13,-469.3 428.71,-475.74 434.56,-479.58"/>
<text text-anchor="middle" x="442.2" y="-490.08" font-family="Times New Roman,serif" font-size="14.00">False</text>
</g>
<!-- 3 -->
<g id="node4" class="node">
<title>3</title>
<polygon fill="none" stroke="black" points="422,-365 310,-365 310,-297 422,-297 422,-365"/>
<text text-anchor="middle" x="366" y="-349.8" font-family="Times New Roman,serif" font-size="14.00">X[2] &lt;= 4.95</text>
<text text-anchor="middle" x="366" y="-334.8" font-family="Times New Roman,serif" font-size="14.00">gini = 0.168</text>
<text text-anchor="middle" x="366" y="-319.8" font-family="Times New Roman,serif" font-size="14.00">samples = 54</text>
<text text-anchor="middle" x="366" y="-304.8" font-family="Times New Roman,serif" font-size="14.00">value = [0, 49, 5]</text>
</g>
<!-- 2&#45;&gt;3 -->
<g id="edge3" class="edge">
<title>2&#45;&gt;3</title>
<path fill="none" stroke="black" d="M428.81,-400.88C420.68,-391.98 411.8,-382.24 403.34,-372.96"/>
<polygon fill="black" stroke="black" points="405.69,-370.33 396.36,-365.3 400.51,-375.05 405.69,-370.33"/>
</g>
<!-- 12 -->
<g id="node13" class="node">
<title>12</title>
<polygon fill="none" stroke="black" points="608,-365 496,-365 496,-297 608,-297 608,-365"/>
<text text-anchor="middle" x="552" y="-349.8" font-family="Times New Roman,serif" font-size="14.00">X[2] &lt;= 4.85</text>
<text text-anchor="middle" x="552" y="-334.8" font-family="Times New Roman,serif" font-size="14.00">gini = 0.043</text>
<text text-anchor="middle" x="552" y="-319.8" font-family="Times New Roman,serif" font-size="14.00">samples = 46</text>
<text text-anchor="middle" x="552" y="-304.8" font-family="Times New Roman,serif" font-size="14.00">value = [0, 1, 45]</text>
</g>
<!-- 2&#45;&gt;12 -->
<g id="edge12" class="edge">
<title>2&#45;&gt;12</title>
<path fill="none" stroke="black" d="M489.19,-400.88C497.32,-391.98 506.2,-382.24 514.66,-372.96"/>
<polygon fill="black" stroke="black" points="517.49,-375.05 521.64,-365.3 512.31,-370.33 517.49,-375.05"/>
</g>
<!-- 4 -->
<g id="node5" class="node">
<title>4</title>
<polygon fill="none" stroke="black" points="239,-261 127,-261 127,-193 239,-193 239,-261"/>
<text text-anchor="middle" x="183" y="-245.8" font-family="Times New Roman,serif" font-size="14.00">X[3] &lt;= 1.65</text>
<text text-anchor="middle" x="183" y="-230.8" font-family="Times New Roman,serif" font-size="14.00">gini = 0.041</text>
<text text-anchor="middle" x="183" y="-215.8" font-family="Times New Roman,serif" font-size="14.00">samples = 48</text>
<text text-anchor="middle" x="183" y="-200.8" font-family="Times New Roman,serif" font-size="14.00">value = [0, 47, 1]</text>
</g>
<!-- 3&#45;&gt;4 -->
<g id="edge4" class="edge">
<title>3&#45;&gt;4</title>
<path fill="none" stroke="black" d="M309.6,-298.56C290.12,-287.7 268.13,-275.45 248.01,-264.23"/>
<polygon fill="black" stroke="black" points="249.65,-261.14 239.21,-259.33 246.24,-267.26 249.65,-261.14"/>
</g>
<!-- 7 -->
<g id="node8" class="node">
<title>7</title>
<polygon fill="none" stroke="black" points="418.5,-261 313.5,-261 313.5,-193 418.5,-193 418.5,-261"/>
<text text-anchor="middle" x="366" y="-245.8" font-family="Times New Roman,serif" font-size="14.00">X[3] &lt;= 1.55</text>
<text text-anchor="middle" x="366" y="-230.8" font-family="Times New Roman,serif" font-size="14.00">gini = 0.444</text>
<text text-anchor="middle" x="366" y="-215.8" font-family="Times New Roman,serif" font-size="14.00">samples = 6</text>
<text text-anchor="middle" x="366" y="-200.8" font-family="Times New Roman,serif" font-size="14.00">value = [0, 2, 4]</text>
</g>
<!-- 3&#45;&gt;7 -->
<g id="edge7" class="edge">
<title>3&#45;&gt;7</title>
<path fill="none" stroke="black" d="M366,-296.88C366,-288.78 366,-279.98 366,-271.47"/>
<polygon fill="black" stroke="black" points="369.5,-271.3 366,-261.3 362.5,-271.3 369.5,-271.3"/>
</g>
<!-- 5 -->
<g id="node6" class="node">
<title>5</title>
<polygon fill="none" stroke="black" points="112,-149.5 0,-149.5 0,-96.5 112,-96.5 112,-149.5"/>
<text text-anchor="middle" x="56" y="-134.3" font-family="Times New Roman,serif" font-size="14.00">gini = 0.0</text>
<text text-anchor="middle" x="56" y="-119.3" font-family="Times New Roman,serif" font-size="14.00">samples = 47</text>
<text text-anchor="middle" x="56" y="-104.3" font-family="Times New Roman,serif" font-size="14.00">value = [0, 47, 0]</text>
</g>
<!-- 4&#45;&gt;5 -->
<g id="edge5" class="edge">
<title>4&#45;&gt;5</title>
<path fill="none" stroke="black" d="M141.77,-192.88C126.98,-181.01 110.34,-167.65 95.69,-155.88"/>
<polygon fill="black" stroke="black" points="97.76,-153.05 87.77,-149.52 93.38,-158.51 97.76,-153.05"/>
</g>
<!-- 6 -->
<g id="node7" class="node">
<title>6</title>
<polygon fill="none" stroke="black" points="235.5,-149.5 130.5,-149.5 130.5,-96.5 235.5,-96.5 235.5,-149.5"/>
<text text-anchor="middle" x="183" y="-134.3" font-family="Times New Roman,serif" font-size="14.00">gini = 0.0</text>
<text text-anchor="middle" x="183" y="-119.3" font-family="Times New Roman,serif" font-size="14.00">samples = 1</text>
<text text-anchor="middle" x="183" y="-104.3" font-family="Times New Roman,serif" font-size="14.00">value = [0, 0, 1]</text>
</g>
<!-- 4&#45;&gt;6 -->
<g id="edge6" class="edge">
<title>4&#45;&gt;6</title>
<path fill="none" stroke="black" d="M183,-192.88C183,-182.33 183,-170.6 183,-159.85"/>
<polygon fill="black" stroke="black" points="186.5,-159.52 183,-149.52 179.5,-159.52 186.5,-159.52"/>
</g>
<!-- 8 -->
<g id="node9" class="node">
<title>8</title>
<polygon fill="none" stroke="black" points="358.5,-149.5 253.5,-149.5 253.5,-96.5 358.5,-96.5 358.5,-149.5"/>
<text text-anchor="middle" x="306" y="-134.3" font-family="Times New Roman,serif" font-size="14.00">gini = 0.0</text>
<text text-anchor="middle" x="306" y="-119.3" font-family="Times New Roman,serif" font-size="14.00">samples = 3</text>
<text text-anchor="middle" x="306" y="-104.3" font-family="Times New Roman,serif" font-size="14.00">value = [0, 0, 3]</text>
</g>
<!-- 7&#45;&gt;8 -->
<g id="edge8" class="edge">
<title>7&#45;&gt;8</title>
<path fill="none" stroke="black" d="M346.52,-192.88C339.99,-181.78 332.69,-169.37 326.11,-158.18"/>
<polygon fill="black" stroke="black" points="329.1,-156.36 321.01,-149.52 323.07,-159.91 329.1,-156.36"/>
</g>
<!-- 9 -->
<g id="node10" class="node">
<title>9</title>
<polygon fill="none" stroke="black" points="481.5,-157 376.5,-157 376.5,-89 481.5,-89 481.5,-157"/>
<text text-anchor="middle" x="429" y="-141.8" font-family="Times New Roman,serif" font-size="14.00">X[0] &lt;= 6.95</text>
<text text-anchor="middle" x="429" y="-126.8" font-family="Times New Roman,serif" font-size="14.00">gini = 0.444</text>
<text text-anchor="middle" x="429" y="-111.8" font-family="Times New Roman,serif" font-size="14.00">samples = 3</text>
<text text-anchor="middle" x="429" y="-96.8" font-family="Times New Roman,serif" font-size="14.00">value = [0, 2, 1]</text>
</g>
<!-- 7&#45;&gt;9 -->
<g id="edge9" class="edge">
<title>7&#45;&gt;9</title>
<path fill="none" stroke="black" d="M386.45,-192.88C391.74,-184.33 397.49,-175.01 403.01,-166.07"/>
<polygon fill="black" stroke="black" points="406.16,-167.65 408.43,-157.3 400.2,-163.97 406.16,-167.65"/>
</g>
<!-- 10 -->
<g id="node11" class="node">
<title>10</title>
<polygon fill="none" stroke="black" points="419.5,-53 314.5,-53 314.5,0 419.5,0 419.5,-53"/>
<text text-anchor="middle" x="367" y="-37.8" font-family="Times New Roman,serif" font-size="14.00">gini = 0.0</text>
<text text-anchor="middle" x="367" y="-22.8" font-family="Times New Roman,serif" font-size="14.00">samples = 2</text>
<text text-anchor="middle" x="367" y="-7.8" font-family="Times New Roman,serif" font-size="14.00">value = [0, 2, 0]</text>
</g>
<!-- 9&#45;&gt;10 -->
<g id="edge10" class="edge">
<title>9&#45;&gt;10</title>
<path fill="none" stroke="black" d="M407.32,-88.95C401.55,-80.17 395.32,-70.66 389.51,-61.82"/>
<polygon fill="black" stroke="black" points="392.3,-59.68 383.89,-53.24 386.44,-63.52 392.3,-59.68"/>
</g>
<!-- 11 -->
<g id="node12" class="node">
<title>11</title>
<polygon fill="none" stroke="black" points="542.5,-53 437.5,-53 437.5,0 542.5,0 542.5,-53"/>
<text text-anchor="middle" x="490" y="-37.8" font-family="Times New Roman,serif" font-size="14.00">gini = 0.0</text>
<text text-anchor="middle" x="490" y="-22.8" font-family="Times New Roman,serif" font-size="14.00">samples = 1</text>
<text text-anchor="middle" x="490" y="-7.8" font-family="Times New Roman,serif" font-size="14.00">value = [0, 0, 1]</text>
</g>
<!-- 9&#45;&gt;11 -->
<g id="edge11" class="edge">
<title>9&#45;&gt;11</title>
<path fill="none" stroke="black" d="M450.33,-88.95C456,-80.17 462.14,-70.66 467.85,-61.82"/>
<polygon fill="black" stroke="black" points="470.9,-63.54 473.39,-53.24 465.02,-59.74 470.9,-63.54"/>
</g>
<!-- 13 -->
<g id="node14" class="node">
<title>13</title>
<polygon fill="none" stroke="black" points="604.5,-261 499.5,-261 499.5,-193 604.5,-193 604.5,-261"/>
<text text-anchor="middle" x="552" y="-245.8" font-family="Times New Roman,serif" font-size="14.00">X[0] &lt;= 5.95</text>
<text text-anchor="middle" x="552" y="-230.8" font-family="Times New Roman,serif" font-size="14.00">gini = 0.444</text>
<text text-anchor="middle" x="552" y="-215.8" font-family="Times New Roman,serif" font-size="14.00">samples = 3</text>
<text text-anchor="middle" x="552" y="-200.8" font-family="Times New Roman,serif" font-size="14.00">value = [0, 1, 2]</text>
</g>
<!-- 12&#45;&gt;13 -->
<g id="edge13" class="edge">
<title>12&#45;&gt;13</title>
<path fill="none" stroke="black" d="M552,-296.88C552,-288.78 552,-279.98 552,-271.47"/>
<polygon fill="black" stroke="black" points="555.5,-271.3 552,-261.3 548.5,-271.3 555.5,-271.3"/>
</g>
<!-- 16 -->
<g id="node17" class="node">
<title>16</title>
<polygon fill="none" stroke="black" points="735,-253.5 623,-253.5 623,-200.5 735,-200.5 735,-253.5"/>
<text text-anchor="middle" x="679" y="-238.3" font-family="Times New Roman,serif" font-size="14.00">gini = 0.0</text>
<text text-anchor="middle" x="679" y="-223.3" font-family="Times New Roman,serif" font-size="14.00">samples = 43</text>
<text text-anchor="middle" x="679" y="-208.3" font-family="Times New Roman,serif" font-size="14.00">value = [0, 0, 43]</text>
</g>
<!-- 12&#45;&gt;16 -->
<g id="edge16" class="edge">
<title>12&#45;&gt;16</title>
<path fill="none" stroke="black" d="M593.23,-296.88C608.02,-285.01 624.66,-271.65 639.31,-259.88"/>
<polygon fill="black" stroke="black" points="641.62,-262.51 647.23,-253.52 637.24,-257.05 641.62,-262.51"/>
</g>
<!-- 14 -->
<g id="node15" class="node">
<title>14</title>
<polygon fill="none" stroke="black" points="604.5,-149.5 499.5,-149.5 499.5,-96.5 604.5,-96.5 604.5,-149.5"/>
<text text-anchor="middle" x="552" y="-134.3" font-family="Times New Roman,serif" font-size="14.00">gini = 0.0</text>
<text text-anchor="middle" x="552" y="-119.3" font-family="Times New Roman,serif" font-size="14.00">samples = 1</text>
<text text-anchor="middle" x="552" y="-104.3" font-family="Times New Roman,serif" font-size="14.00">value = [0, 1, 0]</text>
</g>
<!-- 13&#45;&gt;14 -->
<g id="edge14" class="edge">
<title>13&#45;&gt;14</title>
<path fill="none" stroke="black" d="M552,-192.88C552,-182.33 552,-170.6 552,-159.85"/>
<polygon fill="black" stroke="black" points="555.5,-159.52 552,-149.52 548.5,-159.52 555.5,-159.52"/>
</g>
<!-- 15 -->
<g id="node16" class="node">
<title>15</title>
<polygon fill="none" stroke="black" points="727.5,-149.5 622.5,-149.5 622.5,-96.5 727.5,-96.5 727.5,-149.5"/>
<text text-anchor="middle" x="675" y="-134.3" font-family="Times New Roman,serif" font-size="14.00">gini = 0.0</text>
<text text-anchor="middle" x="675" y="-119.3" font-family="Times New Roman,serif" font-size="14.00">samples = 2</text>
<text text-anchor="middle" x="675" y="-104.3" font-family="Times New Roman,serif" font-size="14.00">value = [0, 0, 2]</text>
</g>
<!-- 13&#45;&gt;15 -->
<g id="edge15" class="edge">
<title>13&#45;&gt;15</title>
<path fill="none" stroke="black" d="M591.93,-192.88C606.13,-181.12 622.07,-167.89 636.17,-156.2"/>
<polygon fill="black" stroke="black" points="638.76,-158.6 644.23,-149.52 634.29,-153.21 638.76,-158.6"/>
</g>
</g>
</svg>
