<?xml version="1.0" encoding="UTF-8" standalone="no"?>
<!DOCTYPE svg PUBLIC "-//W3C//DTD SVG 1.1//EN"
 "http://www.w3.org/Graphics/SVG/1.1/DTD/svg11.dtd">
<!-- Generated by graphviz version 3.0.0 (20220226.1711)
 -->
<!-- Title: Tree Pages: 1 -->
<svg width="896pt" height="671pt"
 viewBox="0.00 0.00 896.00 671.00" xmlns="http://www.w3.org/2000/svg" xmlns:xlink="http://www.w3.org/1999/xlink">
<g id="graph0" class="graph" transform="scale(1 1) rotate(0) translate(4 667)">
<title>Tree</title>
<polygon fill="white" stroke="transparent" points="-4,4 -4,-667 892,-667 892,4 -4,4"/>
<!-- 0 -->
<g id="node1" class="node">
<title>0</title>
<path fill="transparent" stroke="black" d="M532,-663C532,-663 405,-663 405,-663 399,-663 393,-657 393,-651 393,-651 393,-592 393,-592 393,-586 399,-580 405,-580 405,-580 532,-580 532,-580 538,-580 544,-586 544,-592 544,-592 544,-651 544,-651 544,-657 538,-663 532,-663"/>
<text text-anchor="start" x="401" y="-647.8" font-family="Helvetica,sans-Serif" font-size="14.00">petal width (cm) ≤ 0.8</text>
<text text-anchor="start" x="431" y="-632.8" font-family="Helvetica,sans-Serif" font-size="14.00">gini = 0.667</text>
<text text-anchor="start" x="421" y="-617.8" font-family="Helvetica,sans-Serif" font-size="14.00">samples = 150</text>
<text text-anchor="start" x="408" y="-602.8" font-family="Helvetica,sans-Serif" font-size="14.00">value = [50, 50, 50]</text>
<text text-anchor="start" x="422.5" y="-587.8" font-family="Helvetica,sans-Serif" font-size="14.00">class = setosa</text>
</g>
<!-- 1 -->
<g id="node2" class="node">
<title>1</title>
<path fill="#e58139" stroke="black" d="M438,-536.5C438,-536.5 341,-536.5 341,-536.5 335,-536.5 329,-530.5 329,-524.5 329,-524.5 329,-480.5 329,-480.5 329,-474.5 335,-468.5 341,-468.5 341,-468.5 438,-468.5 438,-468.5 444,-468.5 450,-474.5 450,-480.5 450,-480.5 450,-524.5 450,-524.5 450,-530.5 444,-536.5 438,-536.5"/>
<text text-anchor="start" x="360.5" y="-521.3" font-family="Helvetica,sans-Serif" font-size="14.00">gini = 0.0</text>
<text text-anchor="start" x="346" y="-506.3" font-family="Helvetica,sans-Serif" font-size="14.00">samples = 50</text>
<text text-anchor="start" x="337" y="-491.3" font-family="Helvetica,sans-Serif" font-size="14.00">value = [50, 0, 0]</text>
<text text-anchor="start" x="343.5" y="-476.3" font-family="Helvetica,sans-Serif" font-size="14.00">class = setosa</text>
</g>
<!-- 0&#45;&gt;1 -->
<g id="edge1" class="edge">
<title>0&#45;&gt;1</title>
<path fill="none" stroke="black" d="M441.09,-579.91C433.49,-568.65 425.23,-556.42 417.59,-545.11"/>
<polygon fill="black" stroke="black" points="420.39,-543 411.89,-536.67 414.59,-546.91 420.39,-543"/>
<text text-anchor="middle" x="407.14" y="-557.51" font-family="Helvetica,sans-Serif" font-size="14.00">True</text>
</g>
<!-- 2 -->
<g id="node3" class="node">
<title>2</title>
<path fill="transparent" stroke="black" d="M615,-544C615,-544 480,-544 480,-544 474,-544 468,-538 468,-532 468,-532 468,-473 468,-473 468,-467 474,-461 480,-461 480,-461 615,-461 615,-461 621,-461 627,-467 627,-473 627,-473 627,-532 627,-532 627,-538 621,-544 615,-544"/>
<text text-anchor="start" x="476" y="-528.8" font-family="Helvetica,sans-Serif" font-size="14.00">petal width (cm) ≤ 1.75</text>
<text text-anchor="start" x="518.5" y="-513.8" font-family="Helvetica,sans-Serif" font-size="14.00">gini = 0.5</text>
<text text-anchor="start" x="500" y="-498.8" font-family="Helvetica,sans-Serif" font-size="14.00">samples = 100</text>
<text text-anchor="start" x="491" y="-483.8" font-family="Helvetica,sans-Serif" font-size="14.00">value = [0, 50, 50]</text>
<text text-anchor="start" x="492" y="-468.8" font-family="Helvetica,sans-Serif" font-size="14.00">class = versicolor</text>
</g>
<!-- 0&#45;&gt;2 -->
<g id="edge2" class="edge">
<title>0&#45;&gt;2</title>
<path fill="none" stroke="black" d="M495.91,-579.91C501.91,-571.01 508.33,-561.51 514.53,-552.33"/>
<polygon fill="black" stroke="black" points="517.44,-554.27 520.14,-544.02 511.64,-550.35 517.44,-554.27"/>
<text text-anchor="middle" x="524.9" y="-564.86" font-family="Helvetica,sans-Serif" font-size="14.00">False</text>
</g>
<!-- 3 -->
<g id="node4" class="node">
<title>3</title>
<path fill="#39e581" fill-opacity="0.898039" stroke="black" d="M501,-425C501,-425 360,-425 360,-425 354,-425 348,-419 348,-413 348,-413 348,-354 348,-354 348,-348 354,-342 360,-342 360,-342 501,-342 501,-342 507,-342 513,-348 513,-354 513,-354 513,-413 513,-413 513,-419 507,-425 501,-425"/>
<text text-anchor="start" x="356" y="-409.8" font-family="Helvetica,sans-Serif" font-size="14.00">petal length (cm) ≤ 4.95</text>
<text text-anchor="start" x="393" y="-394.8" font-family="Helvetica,sans-Serif" font-size="14.00">gini = 0.168</text>
<text text-anchor="start" x="387" y="-379.8" font-family="Helvetica,sans-Serif" font-size="14.00">samples = 54</text>
<text text-anchor="start" x="378" y="-364.8" font-family="Helvetica,sans-Serif" font-size="14.00">value = [0, 49, 5]</text>
<text text-anchor="start" x="375" y="-349.8" font-family="Helvetica,sans-Serif" font-size="14.00">class = versicolor</text>
</g>
<!-- 2&#45;&gt;3 -->
<g id="edge3" class="edge">
<title>2&#45;&gt;3</title>
<path fill="none" stroke="black" d="M506.91,-460.91C497.65,-451.65 487.73,-441.73 478.21,-432.21"/>
<polygon fill="black" stroke="black" points="480.57,-429.62 471.02,-425.02 475.62,-434.57 480.57,-429.62"/>
</g>
<!-- 12 -->
<g id="node13" class="node">
<title>12</title>
<path fill="#8139e5" fill-opacity="0.976471" stroke="black" d="M735,-425C735,-425 594,-425 594,-425 588,-425 582,-419 582,-413 582,-413 582,-354 582,-354 582,-348 588,-342 594,-342 594,-342 735,-342 735,-342 741,-342 747,-348 747,-354 747,-354 747,-413 747,-413 747,-419 741,-425 735,-425"/>
<text text-anchor="start" x="590" y="-409.8" font-family="Helvetica,sans-Serif" font-size="14.00">petal length (cm) ≤ 4.85</text>
<text text-anchor="start" x="627" y="-394.8" font-family="Helvetica,sans-Serif" font-size="14.00">gini = 0.043</text>
<text text-anchor="start" x="621" y="-379.8" font-family="Helvetica,sans-Serif" font-size="14.00">samples = 46</text>
<text text-anchor="start" x="612" y="-364.8" font-family="Helvetica,sans-Serif" font-size="14.00">value = [0, 1, 45]</text>
<text text-anchor="start" x="614.5" y="-349.8" font-family="Helvetica,sans-Serif" font-size="14.00">class = virginica</text>
</g>
<!-- 2&#45;&gt;12 -->
<g id="edge12" class="edge">
<title>2&#45;&gt;12</title>
<path fill="none" stroke="black" d="M588.09,-460.91C597.35,-451.65 607.27,-441.73 616.79,-432.21"/>
<polygon fill="black" stroke="black" points="619.38,-434.57 623.98,-425.02 614.43,-429.62 619.38,-434.57"/>
</g>
<!-- 4 -->
<g id="node5" class="node">
<title>4</title>
<path fill="#39e581" fill-opacity="0.980392" stroke="black" d="M271,-306C271,-306 136,-306 136,-306 130,-306 124,-300 124,-294 124,-294 124,-235 124,-235 124,-229 130,-223 136,-223 136,-223 271,-223 271,-223 277,-223 283,-229 283,-235 283,-235 283,-294 283,-294 283,-300 277,-306 271,-306"/>
<text text-anchor="start" x="132" y="-290.8" font-family="Helvetica,sans-Serif" font-size="14.00">petal width (cm) ≤ 1.65</text>
<text text-anchor="start" x="166" y="-275.8" font-family="Helvetica,sans-Serif" font-size="14.00">gini = 0.041</text>
<text text-anchor="start" x="160" y="-260.8" font-family="Helvetica,sans-Serif" font-size="14.00">samples = 48</text>
<text text-anchor="start" x="151" y="-245.8" font-family="Helvetica,sans-Serif" font-size="14.00">value = [0, 47, 1]</text>
<text text-anchor="start" x="148" y="-230.8" font-family="Helvetica,sans-Serif" font-size="14.00">class = versicolor</text>
</g>
<!-- 3&#45;&gt;4 -->
<g id="edge4" class="edge">
<title>3&#45;&gt;4</title>
<path fill="none" stroke="black" d="M351.74,-341.91C332.2,-331.83 311.13,-320.98 291.19,-310.7"/>
<polygon fill="black" stroke="black" points="292.61,-307.49 282.12,-306.02 289.4,-313.71 292.61,-307.49"/>
</g>
<!-- 7 -->
<g id="node8" class="node">
<title>7</title>
<path fill="#8139e5" fill-opacity="0.498039" stroke="black" d="M498,-306C498,-306 363,-306 363,-306 357,-306 351,-300 351,-294 351,-294 351,-235 351,-235 351,-229 357,-223 363,-223 363,-223 498,-223 498,-223 504,-223 510,-229 510,-235 510,-235 510,-294 510,-294 510,-300 504,-306 498,-306"/>
<text text-anchor="start" x="359" y="-290.8" font-family="Helvetica,sans-Serif" font-size="14.00">petal width (cm) ≤ 1.55</text>
<text text-anchor="start" x="393" y="-275.8" font-family="Helvetica,sans-Serif" font-size="14.00">gini = 0.444</text>
<text text-anchor="start" x="391" y="-260.8" font-family="Helvetica,sans-Serif" font-size="14.00">samples = 6</text>
<text text-anchor="start" x="382" y="-245.8" font-family="Helvetica,sans-Serif" font-size="14.00">value = [0, 2, 4]</text>
<text text-anchor="start" x="380.5" y="-230.8" font-family="Helvetica,sans-Serif" font-size="14.00">class = virginica</text>
</g>
<!-- 3&#45;&gt;7 -->
<g id="edge7" class="edge">
<title>3&#45;&gt;7</title>
<path fill="none" stroke="black" d="M430.5,-341.91C430.5,-333.65 430.5,-324.86 430.5,-316.3"/>
<polygon fill="black" stroke="black" points="434,-316.02 430.5,-306.02 427,-316.02 434,-316.02"/>
</g>
<!-- 5 -->
<g id="node6" class="node">
<title>5</title>
<path fill="#39e581" stroke="black" d="M115,-179.5C115,-179.5 12,-179.5 12,-179.5 6,-179.5 0,-173.5 0,-167.5 0,-167.5 0,-123.5 0,-123.5 0,-117.5 6,-111.5 12,-111.5 12,-111.5 115,-111.5 115,-111.5 121,-111.5 127,-117.5 127,-123.5 127,-123.5 127,-167.5 127,-167.5 127,-173.5 121,-179.5 115,-179.5"/>
<text text-anchor="start" x="34.5" y="-164.3" font-family="Helvetica,sans-Serif" font-size="14.00">gini = 0.0</text>
<text text-anchor="start" x="20" y="-149.3" font-family="Helvetica,sans-Serif" font-size="14.00">samples = 47</text>
<text text-anchor="start" x="11" y="-134.3" font-family="Helvetica,sans-Serif" font-size="14.00">value = [0, 47, 0]</text>
<text text-anchor="start" x="8" y="-119.3" font-family="Helvetica,sans-Serif" font-size="14.00">class = versicolor</text>
</g>
<!-- 4&#45;&gt;5 -->
<g id="edge5" class="edge">
<title>4&#45;&gt;5</title>
<path fill="none" stroke="black" d="M154.93,-222.91C140.67,-210.99 125.09,-197.98 110.91,-186.12"/>
<polygon fill="black" stroke="black" points="113.1,-183.39 103.19,-179.67 108.62,-188.77 113.1,-183.39"/>
</g>
<!-- 6 -->
<g id="node7" class="node">
<title>6</title>
<path fill="#8139e5" stroke="black" d="M249.5,-179.5C249.5,-179.5 157.5,-179.5 157.5,-179.5 151.5,-179.5 145.5,-173.5 145.5,-167.5 145.5,-167.5 145.5,-123.5 145.5,-123.5 145.5,-117.5 151.5,-111.5 157.5,-111.5 157.5,-111.5 249.5,-111.5 249.5,-111.5 255.5,-111.5 261.5,-117.5 261.5,-123.5 261.5,-123.5 261.5,-167.5 261.5,-167.5 261.5,-173.5 255.5,-179.5 249.5,-179.5"/>
<text text-anchor="start" x="174.5" y="-164.3" font-family="Helvetica,sans-Serif" font-size="14.00">gini = 0.0</text>
<text text-anchor="start" x="164" y="-149.3" font-family="Helvetica,sans-Serif" font-size="14.00">samples = 1</text>
<text text-anchor="start" x="155" y="-134.3" font-family="Helvetica,sans-Serif" font-size="14.00">value = [0, 0, 1]</text>
<text text-anchor="start" x="153.5" y="-119.3" font-family="Helvetica,sans-Serif" font-size="14.00">class = virginica</text>
</g>
<!-- 4&#45;&gt;6 -->
<g id="edge6" class="edge">
<title>4&#45;&gt;6</title>
<path fill="none" stroke="black" d="M203.5,-222.91C203.5,-212.2 203.5,-200.62 203.5,-189.78"/>
<polygon fill="black" stroke="black" points="207,-189.67 203.5,-179.67 200,-189.67 207,-189.67"/>
</g>
<!-- 8 -->
<g id="node9" class="node">
<title>8</title>
<path fill="#8139e5" stroke="black" d="M383.5,-179.5C383.5,-179.5 291.5,-179.5 291.5,-179.5 285.5,-179.5 279.5,-173.5 279.5,-167.5 279.5,-167.5 279.5,-123.5 279.5,-123.5 279.5,-117.5 285.5,-111.5 291.5,-111.5 291.5,-111.5 383.5,-111.5 383.5,-111.5 389.5,-111.5 395.5,-117.5 395.5,-123.5 395.5,-123.5 395.5,-167.5 395.5,-167.5 395.5,-173.5 389.5,-179.5 383.5,-179.5"/>
<text text-anchor="start" x="308.5" y="-164.3" font-family="Helvetica,sans-Serif" font-size="14.00">gini = 0.0</text>
<text text-anchor="start" x="298" y="-149.3" font-family="Helvetica,sans-Serif" font-size="14.00">samples = 3</text>
<text text-anchor="start" x="289" y="-134.3" font-family="Helvetica,sans-Serif" font-size="14.00">value = [0, 0, 3]</text>
<text text-anchor="start" x="287.5" y="-119.3" font-family="Helvetica,sans-Serif" font-size="14.00">class = virginica</text>
</g>
<!-- 7&#45;&gt;8 -->
<g id="edge8" class="edge">
<title>7&#45;&gt;8</title>
<path fill="none" stroke="black" d="M398.23,-222.91C389.2,-211.54 379.37,-199.18 370.31,-187.77"/>
<polygon fill="black" stroke="black" points="372.83,-185.32 363.86,-179.67 367.35,-189.67 372.83,-185.32"/>
</g>
<!-- 9 -->
<g id="node10" class="node">
<title>9</title>
<path fill="#39e581" fill-opacity="0.498039" stroke="black" d="M571,-187C571,-187 426,-187 426,-187 420,-187 414,-181 414,-175 414,-175 414,-116 414,-116 414,-110 420,-104 426,-104 426,-104 571,-104 571,-104 577,-104 583,-110 583,-116 583,-116 583,-175 583,-175 583,-181 577,-187 571,-187"/>
<text text-anchor="start" x="422" y="-171.8" font-family="Helvetica,sans-Serif" font-size="14.00">sepal length (cm) ≤ 6.95</text>
<text text-anchor="start" x="461" y="-156.8" font-family="Helvetica,sans-Serif" font-size="14.00">gini = 0.444</text>
<text text-anchor="start" x="459" y="-141.8" font-family="Helvetica,sans-Serif" font-size="14.00">samples = 3</text>
<text text-anchor="start" x="450" y="-126.8" font-family="Helvetica,sans-Serif" font-size="14.00">value = [0, 2, 1]</text>
<text text-anchor="start" x="443" y="-111.8" font-family="Helvetica,sans-Serif" font-size="14.00">class = versicolor</text>
</g>
<!-- 7&#45;&gt;9 -->
<g id="edge9" class="edge">
<title>7&#45;&gt;9</title>
<path fill="none" stroke="black" d="M454.09,-222.91C459.16,-214.2 464.56,-204.9 469.79,-195.89"/>
<polygon fill="black" stroke="black" points="472.95,-197.43 474.95,-187.02 466.9,-193.91 472.95,-197.43"/>
</g>
<!-- 10 -->
<g id="node11" class="node">
<title>10</title>
<path fill="#39e581" stroke="black" d="M480,-68C480,-68 377,-68 377,-68 371,-68 365,-62 365,-56 365,-56 365,-12 365,-12 365,-6 371,0 377,0 377,0 480,0 480,0 486,0 492,-6 492,-12 492,-12 492,-56 492,-56 492,-62 486,-68 480,-68"/>
<text text-anchor="start" x="399.5" y="-52.8" font-family="Helvetica,sans-Serif" font-size="14.00">gini = 0.0</text>
<text text-anchor="start" x="389" y="-37.8" font-family="Helvetica,sans-Serif" font-size="14.00">samples = 2</text>
<text text-anchor="start" x="380" y="-22.8" font-family="Helvetica,sans-Serif" font-size="14.00">value = [0, 2, 0]</text>
<text text-anchor="start" x="373" y="-7.8" font-family="Helvetica,sans-Serif" font-size="14.00">class = versicolor</text>
</g>
<!-- 9&#45;&gt;10 -->
<g id="edge10" class="edge">
<title>9&#45;&gt;10</title>
<path fill="none" stroke="black" d="M472.43,-103.73C466.84,-94.97 460.91,-85.7 455.29,-76.91"/>
<polygon fill="black" stroke="black" points="458.12,-74.84 449.79,-68.3 452.22,-78.61 458.12,-74.84"/>
</g>
<!-- 11 -->
<g id="node12" class="node">
<title>11</title>
<path fill="#8139e5" stroke="black" d="M614.5,-68C614.5,-68 522.5,-68 522.5,-68 516.5,-68 510.5,-62 510.5,-56 510.5,-56 510.5,-12 510.5,-12 510.5,-6 516.5,0 522.5,0 522.5,0 614.5,0 614.5,0 620.5,0 626.5,-6 626.5,-12 626.5,-12 626.5,-56 626.5,-56 626.5,-62 620.5,-68 614.5,-68"/>
<text text-anchor="start" x="539.5" y="-52.8" font-family="Helvetica,sans-Serif" font-size="14.00">gini = 0.0</text>
<text text-anchor="start" x="529" y="-37.8" font-family="Helvetica,sans-Serif" font-size="14.00">samples = 1</text>
<text text-anchor="start" x="520" y="-22.8" font-family="Helvetica,sans-Serif" font-size="14.00">value = [0, 0, 1]</text>
<text text-anchor="start" x="518.5" y="-7.8" font-family="Helvetica,sans-Serif" font-size="14.00">class = virginica</text>
</g>
<!-- 9&#45;&gt;11 -->
<g id="edge11" class="edge">
<title>9&#45;&gt;11</title>
<path fill="none" stroke="black" d="M524.57,-103.73C530.16,-94.97 536.09,-85.7 541.71,-76.91"/>
<polygon fill="black" stroke="black" points="544.78,-78.61 547.21,-68.3 538.88,-74.84 544.78,-78.61"/>
</g>
<!-- 13 -->
<g id="node14" class="node">
<title>13</title>
<path fill="#8139e5" fill-opacity="0.498039" stroke="black" d="M737,-306C737,-306 592,-306 592,-306 586,-306 580,-300 580,-294 580,-294 580,-235 580,-235 580,-229 586,-223 592,-223 592,-223 737,-223 737,-223 743,-223 749,-229 749,-235 749,-235 749,-294 749,-294 749,-300 743,-306 737,-306"/>
<text text-anchor="start" x="588" y="-290.8" font-family="Helvetica,sans-Serif" font-size="14.00">sepal length (cm) ≤ 5.95</text>
<text text-anchor="start" x="627" y="-275.8" font-family="Helvetica,sans-Serif" font-size="14.00">gini = 0.444</text>
<text text-anchor="start" x="625" y="-260.8" font-family="Helvetica,sans-Serif" font-size="14.00">samples = 3</text>
<text text-anchor="start" x="616" y="-245.8" font-family="Helvetica,sans-Serif" font-size="14.00">value = [0, 1, 2]</text>
<text text-anchor="start" x="614.5" y="-230.8" font-family="Helvetica,sans-Serif" font-size="14.00">class = virginica</text>
</g>
<!-- 12&#45;&gt;13 -->
<g id="edge13" class="edge">
<title>12&#45;&gt;13</title>
<path fill="none" stroke="black" d="M664.5,-341.91C664.5,-333.65 664.5,-324.86 664.5,-316.3"/>
<polygon fill="black" stroke="black" points="668,-316.02 664.5,-306.02 661,-316.02 668,-316.02"/>
</g>
<!-- 16 -->
<g id="node17" class="node">
<title>16</title>
<path fill="#8139e5" stroke="black" d="M876,-298.5C876,-298.5 779,-298.5 779,-298.5 773,-298.5 767,-292.5 767,-286.5 767,-286.5 767,-242.5 767,-242.5 767,-236.5 773,-230.5 779,-230.5 779,-230.5 876,-230.5 876,-230.5 882,-230.5 888,-236.5 888,-242.5 888,-242.5 888,-286.5 888,-286.5 888,-292.5 882,-298.5 876,-298.5"/>
<text text-anchor="start" x="798.5" y="-283.3" font-family="Helvetica,sans-Serif" font-size="14.00">gini = 0.0</text>
<text text-anchor="start" x="784" y="-268.3" font-family="Helvetica,sans-Serif" font-size="14.00">samples = 43</text>
<text text-anchor="start" x="775" y="-253.3" font-family="Helvetica,sans-Serif" font-size="14.00">value = [0, 0, 43]</text>
<text text-anchor="start" x="777.5" y="-238.3" font-family="Helvetica,sans-Serif" font-size="14.00">class = virginica</text>
</g>
<!-- 12&#45;&gt;16 -->
<g id="edge16" class="edge">
<title>12&#45;&gt;16</title>
<path fill="none" stroke="black" d="M721.05,-341.91C737.81,-329.88 756.12,-316.73 772.76,-304.79"/>
<polygon fill="black" stroke="black" points="775.21,-307.34 781.29,-298.67 771.13,-301.65 775.21,-307.34"/>
</g>
<!-- 14 -->
<g id="node15" class="node">
<title>14</title>
<path fill="#39e581" stroke="black" d="M716,-179.5C716,-179.5 613,-179.5 613,-179.5 607,-179.5 601,-173.5 601,-167.5 601,-167.5 601,-123.5 601,-123.5 601,-117.5 607,-111.5 613,-111.5 613,-111.5 716,-111.5 716,-111.5 722,-111.5 728,-117.5 728,-123.5 728,-123.5 728,-167.5 728,-167.5 728,-173.5 722,-179.5 716,-179.5"/>
<text text-anchor="start" x="635.5" y="-164.3" font-family="Helvetica,sans-Serif" font-size="14.00">gini = 0.0</text>
<text text-anchor="start" x="625" y="-149.3" font-family="Helvetica,sans-Serif" font-size="14.00">samples = 1</text>
<text text-anchor="start" x="616" y="-134.3" font-family="Helvetica,sans-Serif" font-size="14.00">value = [0, 1, 0]</text>
<text text-anchor="start" x="609" y="-119.3" font-family="Helvetica,sans-Serif" font-size="14.00">class = versicolor</text>
</g>
<!-- 13&#45;&gt;14 -->
<g id="edge14" class="edge">
<title>13&#45;&gt;14</title>
<path fill="none" stroke="black" d="M664.5,-222.91C664.5,-212.2 664.5,-200.62 664.5,-189.78"/>
<polygon fill="black" stroke="black" points="668,-189.67 664.5,-179.67 661,-189.67 668,-189.67"/>
</g>
<!-- 15 -->
<g id="node16" class="node">
<title>15</title>
<path fill="#8139e5" stroke="black" d="M850.5,-179.5C850.5,-179.5 758.5,-179.5 758.5,-179.5 752.5,-179.5 746.5,-173.5 746.5,-167.5 746.5,-167.5 746.5,-123.5 746.5,-123.5 746.5,-117.5 752.5,-111.5 758.5,-111.5 758.5,-111.5 850.5,-111.5 850.5,-111.5 856.5,-111.5 862.5,-117.5 862.5,-123.5 862.5,-123.5 862.5,-167.5 862.5,-167.5 862.5,-173.5 856.5,-179.5 850.5,-179.5"/>
<text text-anchor="start" x="775.5" y="-164.3" font-family="Helvetica,sans-Serif" font-size="14.00">gini = 0.0</text>
<text text-anchor="start" x="765" y="-149.3" font-family="Helvetica,sans-Serif" font-size="14.00">samples = 2</text>
<text text-anchor="start" x="756" y="-134.3" font-family="Helvetica,sans-Serif" font-size="14.00">value = [0, 0, 2]</text>
<text text-anchor="start" x="754.5" y="-119.3" font-family="Helvetica,sans-Serif" font-size="14.00">class = virginica</text>
</g>
<!-- 13&#45;&gt;15 -->
<g id="edge15" class="edge">
<title>13&#45;&gt;15</title>
<path fill="none" stroke="black" d="M713.07,-222.91C727.33,-210.99 742.91,-197.98 757.09,-186.12"/>
<polygon fill="black" stroke="black" points="759.38,-188.77 764.81,-179.67 754.9,-183.39 759.38,-188.77"/>
</g>
</g>
</svg>
