<?xml version="1.0" encoding="UTF-8" standalone="no"?>
<!DOCTYPE svg PUBLIC "-//W3C//DTD SVG 1.1//EN"
 "http://www.w3.org/Graphics/SVG/1.1/DTD/svg11.dtd">
<!-- Generated by graphviz version 3.0.0 (20220226.1711)
 -->
<!-- Title: Tree Pages: 1 -->
<svg width="358pt" height="314pt"
 viewBox="0.00 0.00 358.00 314.00" xmlns="http://www.w3.org/2000/svg" xmlns:xlink="http://www.w3.org/1999/xlink">
<g id="graph0" class="graph" transform="scale(1 1) rotate(0) translate(4 310)">
<title>Tree</title>
<polygon fill="white" stroke="transparent" points="-4,4 -4,-310 354,-310 354,4 -4,4"/>
<!-- 0 -->
<g id="node1" class="node">
<title>0</title>
<path fill="#ffffff" stroke="black" d="M210,-306C210,-306 69,-306 69,-306 63,-306 57,-300 57,-294 57,-294 57,-235 57,-235 57,-229 63,-223 69,-223 69,-223 210,-223 210,-223 216,-223 222,-229 222,-235 222,-235 222,-294 222,-294 222,-300 216,-306 210,-306"/>
<text text-anchor="start" x="65" y="-290.8" font-family="Helvetica,sans-Serif" font-size="14.00">petal length (cm) ≤ 2.45</text>
<text text-anchor="start" x="102" y="-275.8" font-family="Helvetica,sans-Serif" font-size="14.00">gini = 0.667</text>
<text text-anchor="start" x="92" y="-260.8" font-family="Helvetica,sans-Serif" font-size="14.00">samples = 150</text>
<text text-anchor="start" x="79" y="-245.8" font-family="Helvetica,sans-Serif" font-size="14.00">value = [50, 50, 50]</text>
<text text-anchor="start" x="93.5" y="-230.8" font-family="Helvetica,sans-Serif" font-size="14.00">class = setosa</text>
</g>
<!-- 1 -->
<g id="node2" class="node">
<title>1</title>
<path fill="#e58139" stroke="black" d="M109,-179.5C109,-179.5 12,-179.5 12,-179.5 6,-179.5 0,-173.5 0,-167.5 0,-167.5 0,-123.5 0,-123.5 0,-117.5 6,-111.5 12,-111.5 12,-111.5 109,-111.5 109,-111.5 115,-111.5 121,-117.5 121,-123.5 121,-123.5 121,-167.5 121,-167.5 121,-173.5 115,-179.5 109,-179.5"/>
<text text-anchor="start" x="31.5" y="-164.3" font-family="Helvetica,sans-Serif" font-size="14.00">gini = 0.0</text>
<text text-anchor="start" x="17" y="-149.3" font-family="Helvetica,sans-Serif" font-size="14.00">samples = 50</text>
<text text-anchor="start" x="8" y="-134.3" font-family="Helvetica,sans-Serif" font-size="14.00">value = [50, 0, 0]</text>
<text text-anchor="start" x="14.5" y="-119.3" font-family="Helvetica,sans-Serif" font-size="14.00">class = setosa</text>
</g>
<!-- 0&#45;&gt;1 -->
<g id="edge1" class="edge">
<title>0&#45;&gt;1</title>
<path fill="none" stroke="black" d="M112.09,-222.91C104.49,-211.65 96.23,-199.42 88.59,-188.11"/>
<polygon fill="black" stroke="black" points="91.39,-186 82.89,-179.67 85.59,-189.91 91.39,-186"/>
<text text-anchor="middle" x="78.14" y="-200.51" font-family="Helvetica,sans-Serif" font-size="14.00">True</text>
</g>
<!-- 2 -->
<g id="node3" class="node">
<title>2</title>
<path fill="#ffffff" stroke="black" d="M286,-187C286,-187 151,-187 151,-187 145,-187 139,-181 139,-175 139,-175 139,-116 139,-116 139,-110 145,-104 151,-104 151,-104 286,-104 286,-104 292,-104 298,-110 298,-116 298,-116 298,-175 298,-175 298,-181 292,-187 286,-187"/>
<text text-anchor="start" x="147" y="-171.8" font-family="Helvetica,sans-Serif" font-size="14.00">petal width (cm) ≤ 1.75</text>
<text text-anchor="start" x="189.5" y="-156.8" font-family="Helvetica,sans-Serif" font-size="14.00">gini = 0.5</text>
<text text-anchor="start" x="171" y="-141.8" font-family="Helvetica,sans-Serif" font-size="14.00">samples = 100</text>
<text text-anchor="start" x="162" y="-126.8" font-family="Helvetica,sans-Serif" font-size="14.00">value = [0, 50, 50]</text>
<text text-anchor="start" x="163" y="-111.8" font-family="Helvetica,sans-Serif" font-size="14.00">class = versicolor</text>
</g>
<!-- 0&#45;&gt;2 -->
<g id="edge2" class="edge">
<title>0&#45;&gt;2</title>
<path fill="none" stroke="black" d="M166.91,-222.91C172.91,-214.01 179.33,-204.51 185.53,-195.33"/>
<polygon fill="black" stroke="black" points="188.44,-197.27 191.14,-187.02 182.64,-193.35 188.44,-197.27"/>
<text text-anchor="middle" x="195.9" y="-207.86" font-family="Helvetica,sans-Serif" font-size="14.00">False</text>
</g>
<!-- 3 -->
<g id="node4" class="node">
<title>3</title>
<path fill="#4de88e" stroke="black" d="M199,-68C199,-68 96,-68 96,-68 90,-68 84,-62 84,-56 84,-56 84,-12 84,-12 84,-6 90,0 96,0 96,0 199,0 199,0 205,0 211,-6 211,-12 211,-12 211,-56 211,-56 211,-62 205,-68 199,-68"/>
<text text-anchor="start" x="110" y="-52.8" font-family="Helvetica,sans-Serif" font-size="14.00">gini = 0.168</text>
<text text-anchor="start" x="104" y="-37.8" font-family="Helvetica,sans-Serif" font-size="14.00">samples = 54</text>
<text text-anchor="start" x="95" y="-22.8" font-family="Helvetica,sans-Serif" font-size="14.00">value = [0, 49, 5]</text>
<text text-anchor="start" x="92" y="-7.8" font-family="Helvetica,sans-Serif" font-size="14.00">class = versicolor</text>
</g>
<!-- 2&#45;&gt;3 -->
<g id="edge3" class="edge">
<title>2&#45;&gt;3</title>
<path fill="none" stroke="black" d="M192.06,-103.73C186.38,-94.97 180.38,-85.7 174.67,-76.91"/>
<polygon fill="black" stroke="black" points="177.47,-74.79 169.09,-68.3 171.6,-78.59 177.47,-74.79"/>
</g>
<!-- 4 -->
<g id="node5" class="node">
<title>4</title>
<path fill="#843de6" stroke="black" d="M338,-68C338,-68 241,-68 241,-68 235,-68 229,-62 229,-56 229,-56 229,-12 229,-12 229,-6 235,0 241,0 241,0 338,0 338,0 344,0 350,-6 350,-12 350,-12 350,-56 350,-56 350,-62 344,-68 338,-68"/>
<text text-anchor="start" x="252" y="-52.8" font-family="Helvetica,sans-Serif" font-size="14.00">gini = 0.043</text>
<text text-anchor="start" x="246" y="-37.8" font-family="Helvetica,sans-Serif" font-size="14.00">samples = 46</text>
<text text-anchor="start" x="237" y="-22.8" font-family="Helvetica,sans-Serif" font-size="14.00">value = [0, 1, 45]</text>
<text text-anchor="start" x="239.5" y="-7.8" font-family="Helvetica,sans-Serif" font-size="14.00">class = virginica</text>
</g>
<!-- 2&#45;&gt;4 -->
<g id="edge4" class="edge">
<title>2&#45;&gt;4</title>
<path fill="none" stroke="black" d="M244.94,-103.73C250.62,-94.97 256.62,-85.7 262.33,-76.91"/>
<polygon fill="black" stroke="black" points="265.4,-78.59 267.91,-68.3 259.53,-74.79 265.4,-78.59"/>
</g>
</g>
</svg>
