<?xml version="1.0" encoding="UTF-8" standalone="no"?>
<!DOCTYPE svg PUBLIC "-//W3C//DTD SVG 1.1//EN"
 "http://www.w3.org/Graphics/SVG/1.1/DTD/svg11.dtd">
<!-- Generated by graphviz version 3.0.0 (20220226.1711)
 -->
<!-- Title: Tree Pages: 1 -->
<svg width="698pt" height="269pt"
 viewBox="0.00 0.00 698.00 269.00" xmlns="http://www.w3.org/2000/svg" xmlns:xlink="http://www.w3.org/1999/xlink">
<g id="graph0" class="graph" transform="scale(1 1) rotate(0) translate(4 265)">
<title>Tree</title>
<polygon fill="white" stroke="transparent" points="-4,4 -4,-265 694,-265 694,4 -4,4"/>
<!-- 0 -->
<g id="node1" class="node">
<title>0</title>
<path fill="#efb083" stroke="black" d="M412,-261C412,-261 277,-261 277,-261 271,-261 265,-255 265,-249 265,-249 265,-205 265,-205 265,-199 271,-193 277,-193 277,-193 412,-193 412,-193 418,-193 424,-199 424,-205 424,-205 424,-249 424,-249 424,-255 418,-261 412,-261"/>
<text text-anchor="start" x="315" y="-245.8" font-family="Helvetica,sans-Serif" font-size="14.00">x ≤ 3.133</text>
<text text-anchor="start" x="273" y="-230.8" font-family="Helvetica,sans-Serif" font-size="14.00">squared_error = 0.547</text>
<text text-anchor="start" x="301" y="-215.8" font-family="Helvetica,sans-Serif" font-size="14.00">samples = 80</text>
<text text-anchor="start" x="301.5" y="-200.8" font-family="Helvetica,sans-Serif" font-size="14.00">value = 0.122</text>
</g>
<!-- 1 -->
<g id="node2" class="node">
<title>1</title>
<path fill="#e78c4b" stroke="black" d="M324,-157C324,-157 189,-157 189,-157 183,-157 177,-151 177,-145 177,-145 177,-101 177,-101 177,-95 183,-89 189,-89 189,-89 324,-89 324,-89 330,-89 336,-95 336,-101 336,-101 336,-145 336,-145 336,-151 330,-157 324,-157"/>
<text text-anchor="start" x="227" y="-141.8" font-family="Helvetica,sans-Serif" font-size="14.00">x ≤ 0.514</text>
<text text-anchor="start" x="185" y="-126.8" font-family="Helvetica,sans-Serif" font-size="14.00">squared_error = 0.231</text>
<text text-anchor="start" x="213" y="-111.8" font-family="Helvetica,sans-Serif" font-size="14.00">samples = 51</text>
<text text-anchor="start" x="213.5" y="-96.8" font-family="Helvetica,sans-Serif" font-size="14.00">value = 0.571</text>
</g>
<!-- 0&#45;&gt;1 -->
<g id="edge1" class="edge">
<title>0&#45;&gt;1</title>
<path fill="none" stroke="black" d="M315.93,-192.88C308.24,-183.98 299.84,-174.24 291.84,-164.96"/>
<polygon fill="black" stroke="black" points="294.41,-162.58 285.23,-157.3 289.11,-167.16 294.41,-162.58"/>
<text text-anchor="middle" x="283.39" y="-178.53" font-family="Helvetica,sans-Serif" font-size="14.00">True</text>
</g>
<!-- 4 -->
<g id="node5" class="node">
<title>4</title>
<path fill="#fcefe6" stroke="black" d="M501,-157C501,-157 366,-157 366,-157 360,-157 354,-151 354,-145 354,-145 354,-101 354,-101 354,-95 360,-89 366,-89 366,-89 501,-89 501,-89 507,-89 513,-95 513,-101 513,-101 513,-145 513,-145 513,-151 507,-157 501,-157"/>
<text text-anchor="start" x="408" y="-141.8" font-family="Helvetica,sans-Serif" font-size="14.00">x ≤ 3.85</text>
<text text-anchor="start" x="362" y="-126.8" font-family="Helvetica,sans-Serif" font-size="14.00">squared_error = 0.124</text>
<text text-anchor="start" x="390" y="-111.8" font-family="Helvetica,sans-Serif" font-size="14.00">samples = 29</text>
<text text-anchor="start" x="388" y="-96.8" font-family="Helvetica,sans-Serif" font-size="14.00">value = &#45;0.667</text>
</g>
<!-- 0&#45;&gt;4 -->
<g id="edge4" class="edge">
<title>0&#45;&gt;4</title>
<path fill="none" stroke="black" d="M373.4,-192.88C381.17,-183.98 389.67,-174.24 397.76,-164.96"/>
<polygon fill="black" stroke="black" points="400.51,-167.14 404.44,-157.3 395.23,-162.53 400.51,-167.14"/>
<text text-anchor="middle" x="406.14" y="-178.54" font-family="Helvetica,sans-Serif" font-size="14.00">False</text>
</g>
<!-- 2 -->
<g id="node3" class="node">
<title>2</title>
<path fill="#f0b68c" stroke="black" d="M147,-53C147,-53 12,-53 12,-53 6,-53 0,-47 0,-41 0,-41 0,-12 0,-12 0,-6 6,0 12,0 12,0 147,0 147,0 153,0 159,-6 159,-12 159,-12 159,-41 159,-41 159,-47 153,-53 147,-53"/>
<text text-anchor="start" x="8" y="-37.8" font-family="Helvetica,sans-Serif" font-size="14.00">squared_error = 0.192</text>
<text text-anchor="start" x="36" y="-22.8" font-family="Helvetica,sans-Serif" font-size="14.00">samples = 11</text>
<text text-anchor="start" x="36.5" y="-7.8" font-family="Helvetica,sans-Serif" font-size="14.00">value = 0.052</text>
</g>
<!-- 1&#45;&gt;2 -->
<g id="edge2" class="edge">
<title>1&#45;&gt;2</title>
<path fill="none" stroke="black" d="M194.59,-88.95C175.66,-78.84 154.94,-67.78 136.36,-57.86"/>
<polygon fill="black" stroke="black" points="137.89,-54.71 127.42,-53.09 134.6,-60.88 137.89,-54.71"/>
</g>
<!-- 3 -->
<g id="node4" class="node">
<title>3</title>
<path fill="#e58139" stroke="black" d="M324,-53C324,-53 189,-53 189,-53 183,-53 177,-47 177,-41 177,-41 177,-12 177,-12 177,-6 183,0 189,0 189,0 324,0 324,0 330,0 336,-6 336,-12 336,-12 336,-41 336,-41 336,-47 330,-53 324,-53"/>
<text text-anchor="start" x="185" y="-37.8" font-family="Helvetica,sans-Serif" font-size="14.00">squared_error = 0.148</text>
<text text-anchor="start" x="213" y="-22.8" font-family="Helvetica,sans-Serif" font-size="14.00">samples = 40</text>
<text text-anchor="start" x="213.5" y="-7.8" font-family="Helvetica,sans-Serif" font-size="14.00">value = 0.714</text>
</g>
<!-- 1&#45;&gt;3 -->
<g id="edge3" class="edge">
<title>1&#45;&gt;3</title>
<path fill="none" stroke="black" d="M256.5,-88.95C256.5,-80.72 256.5,-71.85 256.5,-63.48"/>
<polygon fill="black" stroke="black" points="260,-63.24 256.5,-53.24 253,-63.24 260,-63.24"/>
</g>
<!-- 5 -->
<g id="node6" class="node">
<title>5</title>
<path fill="#f8decb" stroke="black" d="M501,-53C501,-53 366,-53 366,-53 360,-53 354,-47 354,-41 354,-41 354,-12 354,-12 354,-6 360,0 366,0 366,0 501,0 501,0 507,0 513,-6 513,-12 513,-12 513,-41 513,-41 513,-47 507,-53 501,-53"/>
<text text-anchor="start" x="362" y="-37.8" font-family="Helvetica,sans-Serif" font-size="14.00">squared_error = 0.124</text>
<text text-anchor="start" x="390" y="-22.8" font-family="Helvetica,sans-Serif" font-size="14.00">samples = 14</text>
<text text-anchor="start" x="388" y="-7.8" font-family="Helvetica,sans-Serif" font-size="14.00">value = &#45;0.452</text>
</g>
<!-- 4&#45;&gt;5 -->
<g id="edge5" class="edge">
<title>4&#45;&gt;5</title>
<path fill="none" stroke="black" d="M433.5,-88.95C433.5,-80.72 433.5,-71.85 433.5,-63.48"/>
<polygon fill="black" stroke="black" points="437,-63.24 433.5,-53.24 430,-63.24 437,-63.24"/>
</g>
<!-- 6 -->
<g id="node7" class="node">
<title>6</title>
<path fill="#ffffff" stroke="black" d="M678,-53C678,-53 543,-53 543,-53 537,-53 531,-47 531,-41 531,-41 531,-12 531,-12 531,-6 537,0 543,0 543,0 678,0 678,0 684,0 690,-6 690,-12 690,-12 690,-41 690,-41 690,-47 684,-53 678,-53"/>
<text text-anchor="start" x="539" y="-37.8" font-family="Helvetica,sans-Serif" font-size="14.00">squared_error = 0.041</text>
<text text-anchor="start" x="567" y="-22.8" font-family="Helvetica,sans-Serif" font-size="14.00">samples = 15</text>
<text text-anchor="start" x="565" y="-7.8" font-family="Helvetica,sans-Serif" font-size="14.00">value = &#45;0.869</text>
</g>
<!-- 4&#45;&gt;6 -->
<g id="edge6" class="edge">
<title>4&#45;&gt;6</title>
<path fill="none" stroke="black" d="M495.41,-88.95C514.34,-78.84 535.06,-67.78 553.64,-57.86"/>
<polygon fill="black" stroke="black" points="555.4,-60.88 562.58,-53.09 552.11,-54.71 555.4,-60.88"/>
</g>
</g>
</svg>
